<svg version="1.2" xmlns="http://www.w3.org/2000/svg" viewBox="0 0 939 482" width="939" height="482">
	<title>SDO logo mini 07-10-2025</title>
	<style>
		.s0 { fill: #ffffff } 
	</style>
	<path id="SDO" class="s0" aria-label="SDO"  d="m107.8 273.8q15.3 0 25-2.3 10.3-2.8 16.3-7 6-4.6 8.3-10.7 2.4-6 2.4-13.4 0-15.8-14.9-26-14.8-10.7-51-22.7-15.8-5.6-31.6-12.5-15.7-7.5-28.3-18.1-12.5-11.2-20.4-26.5-7.9-15.8-7.9-38 0-22.3 8.4-39.9 8.3-18.1 23.6-30.6 15.4-12.6 37.2-19.1 21.8-6.9 49.1-6.9 32.5 0 56.2 6.9 23.6 7 38.9 15.3l-20.8 57.1q-13.5-6.9-30.2-12.1-16.2-5.5-39.4-5.5-26 0-37.6 7.4-11.1 7-11.1 21.8 0 8.8 4.1 14.9 4.2 6 11.6 11.1 7.9 4.6 17.7 8.8 10.2 3.7 22.2 7.9 25.1 9.3 43.6 18.5 18.6 8.9 30.7 20.9 12.5 12.1 18.5 28.3 6 16.3 6 39.5 0 45-31.5 70-31.5 24.6-95.1 24.6-21.3 0-38.5-2.3-17.2-2.8-30.6-6.5-13-3.7-22.8-7.9-9.2-4.2-15.7-7.9l20.4-57.5q14.4 7.9 35.2 14.4 21.4 6 52 6zm254.7-206.9v203.2q5.1 0.4 11.6 0.9 6.9 0 16.2 0 54.3 0 80.3-27.4 26.4-27.3 26.4-75.6 0-50.5-25-76.5-25.1-26-79.4-26-7.4 0-15.3 0.5-7.9 0-14.8 0.9zm209.2 101.1q0 41.8-13 72.9-13 31-37.1 51.5-23.6 20.4-58 30.6-34.3 10.2-77 10.2-19.5 0-45.5-1.4-25.9-1.9-51-7v-313.1q25.1-4.7 52-6.1 27.3-1.8 46.8-1.8 41.3 0 74.7 9.3 33.9 9.2 58 29.2 24.1 19.9 37.1 51 13 31.1 13 74.7zm121.1 0q0 23.7 5.6 42.7 6 19 16.7 32.9 11.1 13.5 26.9 20.9 15.7 7.4 36.2 7.4 19.9 0 35.7-7.4 16.2-7.4 26.9-20.9 11.1-13.9 16.7-32.9 6-19 6-42.7 0-23.6-6-42.7-5.6-19.4-16.7-32.9-10.7-13.9-26.9-21.3-15.8-7.5-35.7-7.5-20.5 0-36.2 7.9-15.8 7.4-26.9 21.4-10.7 13.4-16.7 32.9-5.6 19-5.6 42.2zm245.4 0q0 41.3-12.5 72.9-12.1 31-33.4 52.4-21.4 20.9-51 31.5-29.3 10.7-63.1 10.7-33 0-62.2-10.7-29.2-10.6-51-31.5-21.8-21.4-34.4-52.4-12.5-31.6-12.5-72.9 0-41.3 13-72.4 13-31.5 34.8-52.8 22.3-21.4 51-32 29.2-10.7 61.3-10.7 32.9 0 62.1 10.7 29.3 10.6 51.1 32 21.8 21.3 34.3 52.8 12.5 31.1 12.5 72.4z"/>
	<path id="Parte de C&amp;CA" class="s0" aria-label="Parte de C&amp;CA"  d="m29.6 378.7q21.1 0 32.4 8.1 11.4 8 11.4 23.9 0 8.7-3.2 14.9-3 6.1-8.9 10-5.8 3.7-14.2 5.5-8.4 1.7-19 1.7h-11.1v37.2h-14v-98.8q5.9-1.5 13.1-1.9 7.4-0.6 13.5-0.6zm1.1 12.3q-8.9 0-13.7 0.5v39.3h10.6q7.2 0 13-0.9 5.8-1 9.7-3.1 4-2.4 6.2-6.3 2.2-3.9 2.2-9.9 0-5.8-2.4-9.6-2.1-3.7-6-5.9-3.8-2.3-8.9-3.2-5-0.9-10.7-0.9zm82.1 79.3q4.7 0 8.4-0.1 3.7-0.3 6.2-0.9v-22.4q-1.5-0.8-4.8-1.2-3.2-0.6-7.8-0.6-3.1 0-6.5 0.5-3.4 0.4-6.2 1.9-2.8 1.3-4.7 3.7-1.9 2.3-1.9 6.2 0 7.3 4.7 10.2 4.6 2.7 12.6 2.7zm-1.2-67.4q8.1 0 13.6 2.2 5.6 2 9 5.9 3.4 3.8 4.9 9.1 1.4 5.2 1.4 11.6v47q-1.7 0.3-4.9 0.9-3 0.4-6.9 0.8-3.9 0.5-8.6 0.9-4.4 0.3-8.9 0.3-6.4 0-11.7-1.3-5.4-1.3-9.3-4.1-3.9-2.9-6.1-7.5-2.2-4.6-2.2-11.1 0-6.2 2.5-10.7 2.6-4.5 6.9-7.3 4.4-2.7 10.2-4 5.8-1.3 12.1-1.3 2.1 0 4.2 0.3 2.2 0.1 4.1 0.6 2 0.2 3.4 0.5 1.5 0.3 2.1 0.5v-3.8q0-3.3-0.8-6.5-0.7-3.3-2.6-5.8-1.8-2.6-5.2-4-3.1-1.6-8.4-1.6-6.6 0-11.7 1-4.9 0.8-7.4 1.9l-1.5-11.2q2.6-1.1 8.6-2.1 6.1-1.2 13.2-1.2zm79 0.3q1.7 0 3.9 0.3 2.3 0.1 4.5 0.6 2.1 0.2 3.9 0.7 1.9 0.3 2.7 0.6l-2.3 11.7q-1.6-0.6-5.3-1.3-3.7-0.9-9.4-0.9-3.8 0-7.6 0.9-3.6 0.7-4.7 1v63.2h-13.5v-72q4.8-1.8 11.9-3.2 7.1-1.6 15.9-1.6zm40.6-21.7v23.3h28.5v11.3h-28.5v34.7q0 5.6 0.9 9.4 0.9 3.6 2.6 5.8 1.7 2 4.4 2.9 2.6 0.8 6 0.8 6.1 0 9.7-1.3 3.8-1.4 5.2-2l2.6 11.1q-2 1.1-7.1 2.6-5 1.5-11.5 1.5-7.7 0-12.8-1.9-4.9-2-7.9-5.9-3.1-3.9-4.4-9.6-1.1-5.8-1.1-13.3v-67.1zm39.9 61q0-9.9 2.9-17.3 2.9-7.5 7.7-12.5 4.7-4.9 11-7.3 6.2-2.5 12.7-2.5 15.2 0 23.3 9.6 8.1 9.4 8.1 28.7 0 0.9 0 2.4 0 1.3-0.2 2.4h-51.5q0.9 11.7 6.8 17.8 6 6.1 18.6 6.1 7 0 11.8-1.2 4.9-1.3 7.4-2.4l1.9 11.3q-2.5 1.3-8.7 2.7-6.1 1.5-13.9 1.5-9.8 0-17.1-2.9-7-3.1-11.7-8.3-4.6-5.2-6.9-12.3-2.2-7.2-2.2-15.8zm14.3-7.3h37.4q0.1-9.1-4.7-14.9-4.6-6-12.8-6-4.7 0-8.3 1.9-3.5 1.8-5.9 4.6-2.5 2.9-3.9 6.7-1.3 3.8-1.8 7.7zm152.8 33.1v-47.6q-2.5-2-7.1-3.9-4.6-1.9-10.1-1.9-5.8 0-10 2.2-4 2-6.7 5.8-2.6 3.6-3.7 8.7-1.2 5-1.2 10.8 0 13.2 6.5 20.4 6.5 7.1 17.4 7.1 5.5 0 9.1-0.4 3.8-0.6 5.8-1.2zm0-60.2v-38l13.5-2.3v110q-4.7 1.3-11.9 2.6-7.2 1.4-16.6 1.4-8.7 0-15.7-2.8-6.9-2.7-11.8-7.8-5-5.1-7.7-12.3-2.6-7.4-2.6-16.5 0-8.7 2.2-15.9 2.3-7.2 6.6-12.5 4.4-5.2 10.6-8.1 6.3-2.8 14.4-2.8 6.6 0 11.5 1.7 5 1.7 7.5 3.3zm32.4 34.4q0-9.9 2.9-17.3 2.9-7.5 7.7-12.5 4.7-4.9 11-7.3 6.2-2.5 12.7-2.5 15.2 0 23.3 9.6 8.1 9.4 8.1 28.7 0 0.9 0 2.4 0 1.3-0.2 2.4h-51.5q0.9 11.7 6.8 17.8 6 6.1 18.6 6.1 7 0 11.8-1.2 4.9-1.3 7.4-2.4l1.9 11.3q-2.5 1.3-8.7 2.7-6.1 1.5-13.9 1.5-9.8 0-17.1-2.9-7.1-3.1-11.7-8.3-4.6-5.2-6.9-12.3-2.2-7.2-2.2-15.8zm14.3-7.3h37.3q0.2-9.1-4.6-14.9-4.6-6-12.9-6-4.6 0-8.2 1.9-3.5 1.8-5.9 4.6-2.5 2.9-3.9 6.7-1.3 3.8-1.8 7.7zm151.2 46.8q-24.5 0-37.3-13.6-12.8-13.6-12.8-38.6 0-12.4 4-22.1 3.9-9.9 10.7-16.5 6.8-6.8 16.2-10.3 9.4-3.5 20.4-3.5 6.3 0 11.5 1.1 5.2 0.8 9.1 2.1 3.9 1.2 6.6 2.5 2.6 1.3 3.7 2l-6.5 18.2q-4.6-2.4-10.8-4.2-6.1-1.7-13.9-1.7-5.2 0-10.3 1.7-4.9 1.8-8.8 5.7-3.8 3.8-6.1 9.8-2.3 6.1-2.3 14.8 0 6.9 1.4 13 1.6 5.9 4.9 10.3 3.5 4.3 9 6.9 5.5 2.5 13.3 2.5 4.9 0 8.8-0.6 4-0.6 7-1.3 3-0.9 5.3-1.9 2.4-1 4.2-1.9l6.3 18.1q-4.8 2.9-13.5 5.2-8.7 2.3-20.1 2.3zm31-28.6q0-5.5 1.5-10 1.6-4.6 4.2-8.2 2.8-3.8 6.3-6.5 3.6-2.9 7.5-5.1-3.5-4.2-6.2-9-2.8-4.9-2.8-10.7 0-12.7 7.7-19.5 7.7-7 21.1-7 6.8 0 11.9 1.9 5 1.8 8.4 4.9 3.4 3.1 5.2 7.3 1.7 4 1.7 8.8 0 8.8-5.1 15.8-4.9 6.8-12.5 11.4l16.2 16.2q1.3-2.9 2.4-7.2 1.3-4.5 1.6-7.8l17.9 2.3q-0.2 2.7-1 6-0.7 3.2-1.9 6.6-1 3.3-2.4 6.6-1.3 3.3-2.9 6.1 4.6 5.2 9 11.4 4.5 6.1 7.6 12.3h-22.1q-1.2-1.9-3.2-4.6-2-2.9-4-4.9-5.8 4.6-13.5 7.8-7.7 3-17.2 3-10.1 0-16.9-2.4-6.8-2.6-11-6.6-4.1-4-5.8-8.9-1.7-5.1-1.7-10zm20.1-2.2q0 2.2 0.8 4.5 0.9 2.3 2.8 4.4 2 1.8 5 3.1 3.1 1.2 7.4 1.2 6.1 0 10.6-1.6 4.6-1.6 7.6-4.2l-23.1-23.3q-2 1-4 2.5-1.9 1.4-3.5 3.4-1.6 1.9-2.6 4.4-1 2.4-1 5.6zm28-49.9q0-3.3-2.1-5.9-2.2-2.6-7.3-2.6-4.6 0-7.2 2.9-2.5 2.7-2.5 7.2 0 3.8 2.2 7.4 2.2 3.5 5.6 6.6 4.7-2.6 8-6.2 3.3-3.6 3.3-9.4zm91.5 80.7q-24.5 0-37.4-13.6-12.7-13.6-12.7-38.6 0-12.4 3.9-22.1 3.9-9.9 10.7-16.5 6.8-6.8 16.2-10.3 9.4-3.5 20.4-3.5 6.4 0 11.6 1.1 5.2 0.8 9.1 2.1 3.9 1.2 6.5 2.5 2.6 1.3 3.8 2l-6.5 18.2q-4.7-2.4-10.9-4.2-6.1-1.7-13.9-1.7-5.2 0-10.2 1.7-5 1.8-8.9 5.7-3.7 3.8-6 9.8-2.4 6.1-2.4 14.8 0 6.9 1.5 13 1.6 5.9 4.9 10.3 3.5 4.3 9 6.9 5.5 2.5 13.3 2.5 4.9 0 8.8-0.6 3.9-0.6 6.9-1.3 3.1-0.9 5.4-1.9 2.3-1 4.2-1.9l6.2 18.1q-4.8 2.9-13.4 5.2-8.7 2.3-20.1 2.3zm131.6-2h-24.2q-1.6-5.2-3.6-10.7-1.9-5.5-3.7-11h-39.1q-1.9 5.5-3.9 11-1.9 5.5-3.5 10.7h-23.4q5.6-16.2 10.7-29.9 5.1-13.8 9.8-25.9 5-12.2 9.6-23 4.8-11 9.8-21.4h21.6q4.9 10.4 9.7 21.4 4.7 10.8 9.5 23 4.9 12.1 10 25.9 5.1 13.7 10.7 29.9zm-51.2-77.5q-0.7 2.1-2.2 5.9-1.4 3.8-3.3 8.7-1.9 4.9-4.2 10.8-2.2 6-4.5 12.5h28.5q-2.3-6.5-4.5-12.5-2.1-5.9-4.2-10.8-1.9-4.9-3.3-8.7-1.4-3.8-2.3-5.9z"/>
</svg>